<svg xmlns="http://www.w3.org/2000/svg" viewBox="0 0 480 360" width="100%" height="auto" role="img" style="color:var(--fg);max-width:480px;height:auto"><title>Chaque observation rangée, face à la position qu'elle aurait sous une loi normale</title><path d="M54 16 L54 320 M54 320 L462 320" fill="none" stroke="var(--mut)" stroke-width="1.2"/><path d="M99.83 320 l0 4" stroke="var(--mut)" stroke-width="1.2"/><text x="99.83" y="337" text-anchor="middle" font-size="11.5" fill="var(--mut)" font-family="ui-sans-serif,system-ui,sans-serif">−1,163</text><path d="M190.68 320 l0 4" stroke="var(--mut)" stroke-width="1.2"/><text x="190.68" y="337" text-anchor="middle" font-size="11.5" fill="var(--mut)" font-family="ui-sans-serif,system-ui,sans-serif">−0,495</text><path d="M258 320 l0 4" stroke="var(--mut)" stroke-width="1.2"/><text x="258" y="337" text-anchor="middle" font-size="11.5" fill="var(--mut)" font-family="ui-sans-serif,system-ui,sans-serif">0</text><path d="M325.32 320 l0 4" stroke="var(--mut)" stroke-width="1.2"/><text x="325.32" y="337" text-anchor="middle" font-size="11.5" fill="var(--mut)" font-family="ui-sans-serif,system-ui,sans-serif">0,495</text><path d="M416.17 320 l0 4" stroke="var(--mut)" stroke-width="1.2"/><text x="416.17" y="337" text-anchor="middle" font-size="11.5" fill="var(--mut)" font-family="ui-sans-serif,system-ui,sans-serif">1,163</text><path d="M54 264.73 l-4 0" stroke="var(--mut)" stroke-width="1.2"/><text x="46" y="268.73" text-anchor="end" font-size="11.5" fill="var(--mut)" font-family="ui-sans-serif,system-ui,sans-serif">−2</text><path d="M54 209.45 l-4 0" stroke="var(--mut)" stroke-width="1.2"/><text x="46" y="213.45" text-anchor="end" font-size="11.5" fill="var(--mut)" font-family="ui-sans-serif,system-ui,sans-serif">0</text><path d="M54 154.18 l-4 0" stroke="var(--mut)" stroke-width="1.2"/><text x="46" y="158.18" text-anchor="end" font-size="11.5" fill="var(--mut)" font-family="ui-sans-serif,system-ui,sans-serif">2</text><path d="M54 98.91 l-4 0" stroke="var(--mut)" stroke-width="1.2"/><text x="46" y="102.91" text-anchor="end" font-size="11.5" fill="var(--mut)" font-family="ui-sans-serif,system-ui,sans-serif">4</text><path d="M54 43.64 l-4 0" stroke="var(--mut)" stroke-width="1.2"/><text x="46" y="47.64" text-anchor="end" font-size="11.5" fill="var(--mut)" font-family="ui-sans-serif,system-ui,sans-serif">6</text><text x="462" y="353" text-anchor="end" font-size="12" fill="var(--mut)" font-family="ui-sans-serif,system-ui,sans-serif">position attendue m<tspan dy="3" font-size="8.64">i</tspan><tspan dy="-3"></tspan></text><text x="10" y="10" text-anchor="start" font-size="12" fill="var(--mut)" font-family="ui-sans-serif,system-ui,sans-serif">X<tspan dy="3" font-size="8.64">(i)</tspan><tspan dy="-3">, en %</tspan></text><path d="M67.6 293.32 L69.98 291.79 L72.36 290.26 L74.74 288.73 L77.12 287.2 L79.5 285.66 L81.88 284.13 L84.26 282.6 L86.64 281.07 L89.02 279.54 L91.4 278 L93.78 276.47 L96.16 274.94 L98.54 273.41 L100.92 271.88 L103.3 270.34 L105.68 268.81 L108.06 267.28 L110.44 265.75 L112.82 264.22 L115.2 262.68 L117.58 261.15 L119.96 259.62 L122.34 258.09 L124.72 256.56 L127.1 255.02 L129.48 253.49 L131.86 251.96 L134.24 250.43 L136.62 248.9 L139 247.36 L141.38 245.83 L143.76 244.3 L146.14 242.77 L148.52 241.24 L150.9 239.7 L153.28 238.17 L155.66 236.64 L158.04 235.11 L160.42 233.58 L162.8 232.04 L165.18 230.51 L167.56 228.98 L169.94 227.45 L172.32 225.92 L174.7 224.38 L177.08 222.85 L179.46 221.32 L181.84 219.79 L184.22 218.26 L186.6 216.72 L188.98 215.19 L191.36 213.66 L193.74 212.13 L196.12 210.6 L198.5 209.06 L200.88 207.53 L203.26 206 L205.64 204.47 L208.02 202.94 L210.4 201.4 L212.78 199.87 L215.16 198.34 L217.54 196.81 L219.92 195.28 L222.3 193.74 L224.68 192.21 L227.06 190.68 L229.44 189.15 L231.82 187.62 L234.2 186.08 L236.58 184.55 L238.96 183.02 L241.34 181.49 L243.72 179.96 L246.1 178.42 L248.48 176.89 L250.86 175.36 L253.24 173.83 L255.62 172.3 L258 170.76 L260.38 169.23 L262.76 167.7 L265.14 166.17 L267.52 164.64 L269.9 163.1 L272.28 161.57 L274.66 160.04 L277.04 158.51 L279.42 156.98 L281.8 155.44 L284.18 153.91 L286.56 152.38 L288.94 150.85 L291.32 149.32 L293.7 147.78 L296.08 146.25 L298.46 144.72 L300.84 143.19 L303.22 141.66 L305.6 140.12 L307.98 138.59 L310.36 137.06 L312.74 135.53 L315.12 134 L317.5 132.46 L319.88 130.93 L322.26 129.4 L324.64 127.87 L327.02 126.34 L329.4 124.8 L331.78 123.27 L334.16 121.74 L336.54 120.21 L338.92 118.68 L341.3 117.14 L343.68 115.61 L346.06 114.08 L348.44 112.55 L350.82 111.02 L353.2 109.48 L355.58 107.95 L357.96 106.42 L360.34 104.89 L362.72 103.36 L365.1 101.82 L367.48 100.29 L369.86 98.76 L372.24 97.23 L374.62 95.7 L377 94.16 L379.38 92.63 L381.76 91.1 L384.14 89.57 L386.52 88.04 L388.9 86.5 L391.28 84.97 L393.66 83.44 L396.04 81.91 L398.42 80.38 L400.8 78.84 L403.18 77.31 L405.56 75.78 L407.94 74.25 L410.32 72.72 L412.7 71.18 L415.08 69.65 L417.46 68.12 L419.84 66.59 L422.22 65.06 L424.6 63.52 L426.98 61.99 L429.36 60.46 L431.74 58.93 L434.12 57.4 L436.5 55.86 L438.88 54.33 L441.26 52.8 L443.64 51.27 L446.02 49.74 L448.4 48.2" fill="none" stroke="var(--mut)" stroke-width="1.4" stroke-dasharray="5 4" stroke-linecap="round" stroke-linejoin="round"/><circle cx="99.84" cy="264.73" r="4.5" fill="var(--acc)"/><defs><filter id="fond-etiquette" x="-0.03" y="-0.12" width="1.06" height="1.24"><feFlood style="flood-color:var(--card)"/></filter></defs><text x="107.84" y="282.73" text-anchor="start" font-size="11" fill="none" filter="url(#fond-etiquette)" font-family="ui-sans-serif,system-ui,sans-serif">X<tspan dy="2.75" font-size="7.92">(1)</tspan><tspan dy="-2.75"> = −2 %</tspan></text><text x="107.84" y="282.73" text-anchor="start" font-size="11" fill="var(--acc)" font-family="ui-sans-serif,system-ui,sans-serif">X<tspan dy="2.75" font-size="7.92">(1)</tspan><tspan dy="-2.75"> = −2 %</tspan></text><circle cx="190.68" cy="237.09" r="4.5" fill="var(--acc)"/><text x="182.68" y="229.09" text-anchor="end" font-size="11" fill="none" filter="url(#fond-etiquette)" font-family="ui-sans-serif,system-ui,sans-serif">X<tspan dy="2.75" font-size="7.92">(2)</tspan><tspan dy="-2.75"> = −1 %</tspan></text><text x="182.68" y="229.09" text-anchor="end" font-size="11" fill="var(--acc)" font-family="ui-sans-serif,system-ui,sans-serif">X<tspan dy="2.75" font-size="7.92">(2)</tspan><tspan dy="-2.75"> = −1 %</tspan></text><circle cx="258" cy="154.18" r="4.5" fill="var(--acc)"/><text x="250" y="146.18" text-anchor="end" font-size="11" fill="none" filter="url(#fond-etiquette)" font-family="ui-sans-serif,system-ui,sans-serif">X<tspan dy="2.75" font-size="7.92">(3)</tspan><tspan dy="-2.75"> = 2 %</tspan></text><text x="250" y="146.18" text-anchor="end" font-size="11" fill="var(--acc)" font-family="ui-sans-serif,system-ui,sans-serif">X<tspan dy="2.75" font-size="7.92">(3)</tspan><tspan dy="-2.75"> = 2 %</tspan></text><circle cx="325.32" cy="126.55" r="4.5" fill="var(--acc)"/><text x="317.32" y="118.55" text-anchor="end" font-size="11" fill="none" filter="url(#fond-etiquette)" font-family="ui-sans-serif,system-ui,sans-serif">X<tspan dy="2.75" font-size="7.92">(4)</tspan><tspan dy="-2.75"> = 3 %</tspan></text><text x="317.32" y="118.55" text-anchor="end" font-size="11" fill="var(--acc)" font-family="ui-sans-serif,system-ui,sans-serif">X<tspan dy="2.75" font-size="7.92">(4)</tspan><tspan dy="-2.75"> = 3 %</tspan></text><circle cx="416.16" cy="71.27" r="4.5" fill="var(--acc)"/><text x="408.16" y="63.27" text-anchor="end" font-size="11" fill="none" filter="url(#fond-etiquette)" font-family="ui-sans-serif,system-ui,sans-serif">X<tspan dy="2.75" font-size="7.92">(5)</tspan><tspan dy="-2.75"> = 5 %</tspan></text><text x="408.16" y="63.27" text-anchor="end" font-size="11" fill="var(--acc)" font-family="ui-sans-serif,system-ui,sans-serif">X<tspan dy="2.75" font-size="7.92">(5)</tspan><tspan dy="-2.75"> = 5 %</tspan></text></svg>
