<svg xmlns="http://www.w3.org/2000/svg" viewBox="0 0 560 330" width="100%" height="auto" role="img" style="color:var(--fg);max-width:560px;height:auto"><title>Entre 105 et 115, l'investisseur ambigu ne détient rien</title><rect x="230.22" y="16" width="135.56" height="274" fill="var(--mut)" fill-opacity="0.10"/><path d="M54 16 L54 290 M54 153 L542 153" fill="none" stroke="var(--mut)" stroke-width="1.2"/><path d="M162.44 153 l0 4" stroke="var(--mut)" stroke-width="1.2"/><text x="162.44" y="170" text-anchor="middle" font-size="11.5" fill="var(--mut)" font-family="ui-sans-serif,system-ui,sans-serif">100</text><path d="M230.22 153 l0 4" stroke="var(--mut)" stroke-width="1.2"/><text x="230.22" y="170" text-anchor="middle" font-size="11.5" fill="var(--mut)" font-family="ui-sans-serif,system-ui,sans-serif">105</text><path d="M365.78 153 l0 4" stroke="var(--mut)" stroke-width="1.2"/><text x="365.78" y="170" text-anchor="middle" font-size="11.5" fill="var(--mut)" font-family="ui-sans-serif,system-ui,sans-serif">115</text><path d="M501.33 153 l0 4" stroke="var(--mut)" stroke-width="1.2"/><text x="501.33" y="170" text-anchor="middle" font-size="11.5" fill="var(--mut)" font-family="ui-sans-serif,system-ui,sans-serif">125</text><path d="M54 248.14 l-4 0" stroke="var(--mut)" stroke-width="1.2"/><text x="46" y="252.14" text-anchor="end" font-size="11.5" fill="var(--mut)" font-family="ui-sans-serif,system-ui,sans-serif">-0,025</text><path d="M54 105.43 l-4 0" stroke="var(--mut)" stroke-width="1.2"/><text x="46" y="109.43" text-anchor="end" font-size="11.5" fill="var(--mut)" font-family="ui-sans-serif,system-ui,sans-serif">0,0125</text><path d="M54 57.86 l-4 0" stroke="var(--mut)" stroke-width="1.2"/><text x="46" y="61.86" text-anchor="end" font-size="11.5" fill="var(--mut)" font-family="ui-sans-serif,system-ui,sans-serif">0,025</text><text x="542" y="186" text-anchor="end" font-size="12" fill="var(--mut)" font-family="ui-sans-serif,system-ui,sans-serif">prix p</text><text x="10" y="10" text-anchor="start" font-size="12" fill="var(--mut)" font-family="ui-sans-serif,system-ui,sans-serif">demande</text><path d="M54 29.32 L57.39 31.7 L60.78 34.08 L64.17 36.45 L67.56 38.83 L70.94 41.21 L74.33 43.59 L77.72 45.97 L81.11 48.35 L84.5 50.73 L87.89 53.1 L91.28 55.48 L94.67 57.86 L98.06 60.24 L101.44 62.62 L104.83 65 L108.22 67.38 L111.61 69.75 L115 72.13 L118.39 74.51 L121.78 76.89 L125.17 79.27 L128.56 81.65 L131.94 84.02 L135.33 86.4 L138.72 88.78 L142.11 91.16 L145.5 93.54 L148.89 95.92 L152.28 98.3 L155.67 100.67 L159.06 103.05 L162.44 105.43 L165.83 107.81 L169.22 110.19 L172.61 112.57 L176 114.94 L179.39 117.32 L182.78 119.7 L186.17 122.08 L189.56 124.46 L192.94 126.84 L196.33 129.22 L199.72 131.59 L203.11 133.97 L206.5 136.35 L209.89 138.73 L213.28 141.11 L216.67 143.49 L220.06 145.86 L223.44 148.24 L226.83 150.62 L230.22 153 L233.61 153 L237 153 L240.39 153 L243.78 153 L247.17 153 L250.56 153 L253.94 153 L257.33 153 L260.72 153 L264.11 153 L267.5 153 L270.89 153 L274.28 153 L277.67 153 L281.06 153 L284.44 153 L287.83 153 L291.22 153 L294.61 153 L298 153 L301.39 153 L304.78 153 L308.17 153 L311.56 153 L314.94 153 L318.33 153 L321.72 153 L325.11 153 L328.5 153 L331.89 153 L335.28 153 L338.67 153 L342.06 153 L345.44 153 L348.83 153 L352.22 153 L355.61 153 L359 153 L362.39 153 L365.78 153 L369.17 155.38 L372.56 157.76 L375.94 160.14 L379.33 162.51 L382.72 164.89 L386.11 167.27 L389.5 169.65 L392.89 172.03 L396.28 174.41 L399.67 176.78 L403.06 179.16 L406.44 181.54 L409.83 183.92 L413.22 186.3 L416.61 188.68 L420 191.06 L423.39 193.43 L426.78 195.81 L430.17 198.19 L433.56 200.57 L436.94 202.95 L440.33 205.33 L443.72 207.7 L447.11 210.08 L450.5 212.46 L453.89 214.84 L457.28 217.22 L460.67 219.6 L464.06 221.98 L467.44 224.35 L470.83 226.73 L474.22 229.11 L477.61 231.49 L481 233.87 L484.39 236.25 L487.78 238.62 L491.17 241 L494.56 243.38 L497.94 245.76 L501.33 248.14 L504.72 250.52 L508.11 252.9 L511.5 255.27 L514.89 257.65 L518.28 260.03 L521.67 262.41 L525.06 264.79 L528.44 267.17 L531.83 269.55 L535.22 271.92 L538.61 274.3 L542 276.68" fill="none" stroke="var(--acc)" stroke-width="2.6" stroke-linecap="round" stroke-linejoin="round"/><path d="M162.44 153 L162.44 105.43" fill="none" stroke="var(--li2)" stroke-width="1.2" stroke-dasharray="4 3" stroke-linecap="round" stroke-linejoin="round"/><path d="M54 105.43 L162.44 105.43" fill="none" stroke="var(--li2)" stroke-width="1.2" stroke-dasharray="4 3" stroke-linecap="round" stroke-linejoin="round"/><circle cx="162.44" cy="105.43" r="3.6" fill="var(--fg)"/><text x="170.44" y="99.43" text-anchor="start" font-size="11.5" stroke="var(--card)" stroke-width="3.2" stroke-linejoin="round" fill="none" font-family="ui-sans-serif,system-ui,sans-serif">prix 100 : achète 0,0125</text><text x="170.44" y="99.43" text-anchor="start" font-size="11.5" fill="var(--fg)" font-family="ui-sans-serif,system-ui,sans-serif">prix 100 : achète 0,0125</text><text x="298" y="61.67" text-anchor="middle" font-size="12.5" stroke="var(--card)" stroke-width="3.2" stroke-linejoin="round" fill="none" font-family="ui-sans-serif,system-ui,sans-serif">abstention</text><text x="298" y="61.67" text-anchor="middle" font-size="12.5" fill="var(--fg)" font-weight="600" font-family="ui-sans-serif,system-ui,sans-serif">abstention</text><text x="108.22" y="77.67" text-anchor="middle" font-size="11.5" stroke="var(--card)" stroke-width="3.2" stroke-linejoin="round" fill="none" font-family="ui-sans-serif,system-ui,sans-serif">achète</text><text x="108.22" y="77.67" text-anchor="middle" font-size="11.5" fill="var(--acc)" font-family="ui-sans-serif,system-ui,sans-serif">achète</text><text x="487.78" y="217.11" text-anchor="middle" font-size="11.5" stroke="var(--card)" stroke-width="3.2" stroke-linejoin="round" fill="none" font-family="ui-sans-serif,system-ui,sans-serif">vend</text><text x="487.78" y="217.11" text-anchor="middle" font-size="11.5" fill="var(--acc)" font-family="ui-sans-serif,system-ui,sans-serif">vend</text></svg>
