<svg xmlns="http://www.w3.org/2000/svg" viewBox="0 0 560 330" width="100%" height="auto" role="img" style="color:var(--fg);max-width:560px;height:auto"><title>Les deux loteries ont la même entropie : l'axe ne connaît que la probabilité</title><path d="M54 16 L54 290 M54 290 L542 290" fill="none" stroke="var(--mut)" stroke-width="1.2"/><path d="M54 290 l0 4" stroke="var(--mut)" stroke-width="1.2"/><text x="54" y="307" text-anchor="middle" font-size="11.5" fill="var(--mut)" font-family="ui-sans-serif,system-ui,sans-serif">0</text><path d="M288.62 290 l0 4" stroke="var(--mut)" stroke-width="1.2"/><text x="288.62" y="307" text-anchor="middle" font-size="11.5" fill="var(--mut)" font-family="ui-sans-serif,system-ui,sans-serif">½</text><path d="M523.23 290 l0 4" stroke="var(--mut)" stroke-width="1.2"/><text x="523.23" y="307" text-anchor="middle" font-size="11.5" fill="var(--mut)" font-family="ui-sans-serif,system-ui,sans-serif">1</text><text x="542" y="323" text-anchor="end" font-size="12" fill="var(--mut)" font-family="ui-sans-serif,system-ui,sans-serif">probabilité p du premier résultat</text><text x="10" y="10" text-anchor="start" font-size="12" fill="var(--mut)" font-family="ui-sans-serif,system-ui,sans-serif">H</text><path d="M54 290 L56.35 279.97 L58.69 272.16 L61.04 265.19 L63.38 258.76 L65.73 252.75 L68.08 247.07 L70.42 241.66 L72.77 236.49 L75.12 231.53 L77.46 226.75 L79.81 222.14 L82.15 217.69 L84.5 213.37 L86.85 209.19 L89.19 205.13 L91.54 201.18 L93.88 197.35 L96.23 193.61 L98.58 189.97 L100.92 186.43 L103.27 182.97 L105.62 179.6 L107.96 176.31 L110.31 173.1 L112.65 169.96 L115 166.9 L117.35 163.9 L119.69 160.98 L122.04 158.12 L124.38 155.32 L126.73 152.59 L129.08 149.92 L131.42 147.31 L133.77 144.75 L136.12 142.25 L138.46 139.81 L140.81 137.42 L143.15 135.09 L145.5 132.8 L147.85 130.57 L150.19 128.39 L152.54 126.25 L154.88 124.16 L157.23 122.12 L159.58 120.13 L161.92 118.18 L164.27 116.28 L166.62 114.42 L168.96 112.61 L171.31 110.84 L173.65 109.11 L176 107.42 L178.35 105.78 L180.69 104.17 L183.04 102.61 L185.38 101.08 L187.73 99.6 L190.08 98.15 L192.42 96.74 L194.77 95.38 L197.12 94.04 L199.46 92.75 L201.81 91.5 L204.15 90.28 L206.5 89.09 L208.85 87.95 L211.19 86.84 L213.54 85.76 L215.88 84.72 L218.23 83.72 L220.58 82.75 L222.92 81.82 L225.27 80.92 L227.62 80.05 L229.96 79.22 L232.31 78.43 L234.65 77.66 L237 76.93 L239.35 76.24 L241.69 75.58 L244.04 74.95 L246.38 74.35 L248.73 73.79 L251.08 73.26 L253.42 72.76 L255.77 72.29 L258.12 71.86 L260.46 71.46 L262.81 71.09 L265.15 70.76 L267.5 70.45 L269.85 70.18 L272.19 69.94 L274.54 69.73 L276.88 69.56 L279.23 69.42 L281.58 69.3 L283.92 69.22 L286.27 69.18 L288.62 69.16 L290.96 69.18 L293.31 69.22 L295.65 69.3 L298 69.42 L300.35 69.56 L302.69 69.73 L305.04 69.94 L307.38 70.18 L309.73 70.45 L312.08 70.76 L314.42 71.09 L316.77 71.46 L319.12 71.86 L321.46 72.29 L323.81 72.76 L326.15 73.26 L328.5 73.79 L330.85 74.35 L333.19 74.95 L335.54 75.58 L337.88 76.24 L340.23 76.93 L342.58 77.66 L344.92 78.43 L347.27 79.22 L349.62 80.05 L351.96 80.92 L354.31 81.82 L356.65 82.75 L359 83.72 L361.35 84.72 L363.69 85.76 L366.04 86.84 L368.38 87.95 L370.73 89.09 L373.08 90.28 L375.42 91.5 L377.77 92.75 L380.12 94.04 L382.46 95.38 L384.81 96.74 L387.15 98.15 L389.5 99.6 L391.85 101.08 L394.19 102.61 L396.54 104.17 L398.88 105.78 L401.23 107.42 L403.58 109.11 L405.92 110.84 L408.27 112.61 L410.62 114.42 L412.96 116.28 L415.31 118.18 L417.65 120.13 L420 122.12 L422.35 124.16 L424.69 126.25 L427.04 128.39 L429.38 130.57 L431.73 132.8 L434.08 135.09 L436.42 137.42 L438.77 139.81 L441.12 142.25 L443.46 144.75 L445.81 147.31 L448.15 149.92 L450.5 152.59 L452.85 155.32 L455.19 158.12 L457.54 160.98 L459.88 163.9 L462.23 166.9 L464.58 169.96 L466.92 173.1 L469.27 176.31 L471.62 179.6 L473.96 182.97 L476.31 186.43 L478.65 189.97 L481 193.61 L483.35 197.35 L485.69 201.18 L488.04 205.13 L490.38 209.19 L492.73 213.37 L495.08 217.69 L497.42 222.14 L499.77 226.75 L502.12 231.53 L504.46 236.49 L506.81 241.66 L509.15 247.07 L511.5 252.75 L513.85 258.76 L516.19 265.19 L518.54 272.16 L520.88 279.97 L523.23 290" fill="none" stroke="var(--acc)" stroke-width="2.6" stroke-linecap="round" stroke-linejoin="round"/><path d="M288.62 290 L288.62 69.16" fill="none" stroke="var(--li2)" stroke-width="1.2" stroke-dasharray="4 3" stroke-linecap="round" stroke-linejoin="round"/><circle cx="288.62" cy="69.16" r="3.6" fill="var(--fg)"/><defs><filter id="fond-etiquette" x="-0.03" y="-0.12" width="1.06" height="1.24"><feFlood style="flood-color:var(--card)"/></filter></defs><text x="288.62" y="57.16" text-anchor="middle" font-size="12.5" fill="none" filter="url(#fond-etiquette)" font-family="ui-sans-serif,system-ui,sans-serif">(49, ½ ; 51, ½) et (0, ½ ; 100, ½)</text><text x="288.62" y="57.16" text-anchor="middle" font-size="12.5" fill="var(--fg)" font-weight="600" font-family="ui-sans-serif,system-ui,sans-serif">(49, ½ ; 51, ½) et (0, ½ ; 100, ½)</text><text x="288.62" y="194.42" text-anchor="middle" font-size="11.5" fill="none" filter="url(#fond-etiquette)" font-family="ui-sans-serif,system-ui,sans-serif">le maximum : résultats également probables</text><text x="288.62" y="194.42" text-anchor="middle" font-size="11.5" fill="var(--fg)" font-family="ui-sans-serif,system-ui,sans-serif">le maximum : résultats également probables</text></svg>
