<svg xmlns="http://www.w3.org/2000/svg" viewBox="0 0 600 280" width="100%" height="auto" role="img" style="color:var(--fg);max-width:600px;height:auto"><title>Les épargnants financent ceux qui ont besoin d'argent ; les titres font le chemin inverse</title><text x="236.2" y="28.87" text-anchor="end" font-size="12.5" fill="var(--fg)" font-weight="600" font-family="ui-sans-serif,system-ui,sans-serif">épargnent</text><rect x="44.8" y="57.81" width="191.4" height="17.61" fill="var(--ajo)" rx="2"/><text x="236.2" y="52.81" text-anchor="end" font-size="12" fill="var(--mut)" font-family="ui-sans-serif,system-ui,sans-serif">gérants d'actifs</text><rect x="172.4" y="110.23" width="63.8" height="17.61" fill="var(--ajo)" rx="2"/><text x="236.2" y="105.23" text-anchor="end" font-size="12" fill="var(--mut)" font-family="ui-sans-serif,system-ui,sans-serif">assureurs</text><rect x="220.25" y="162.65" width="15.95" height="17.61" fill="var(--ajo)" rx="2"/><text x="236.2" y="157.65" text-anchor="end" font-size="12" fill="var(--mut)" font-family="ui-sans-serif,system-ui,sans-serif">fonds souverains</text><rect x="233.01" y="215.06" width="3.19" height="17.61" fill="var(--ajo)" rx="2"/><text x="236.2" y="210.06" text-anchor="end" font-size="12" fill="var(--mut)" font-family="ui-sans-serif,system-ui,sans-serif">fondations</text><text x="363.8" y="28.87" text-anchor="start" font-size="12.5" fill="var(--fg)" font-weight="600" font-family="ui-sans-serif,system-ui,sans-serif">ont besoin d'argent</text><rect x="363.8" y="57.81" width="159.5" height="17.61" fill="var(--acc)" rx="2"/><text x="363.8" y="52.81" text-anchor="start" font-size="12" fill="var(--mut)" font-family="ui-sans-serif,system-ui,sans-serif">actions des entreprises</text><rect x="363.8" y="110.23" width="143.55" height="17.61" fill="var(--acc)" rx="2"/><text x="363.8" y="105.23" text-anchor="start" font-size="12" fill="var(--mut)" font-family="ui-sans-serif,system-ui,sans-serif">dette des entreprises</text><rect x="363.8" y="162.65" width="143.55" height="17.61" fill="var(--acc)" rx="2"/><text x="363.8" y="157.65" text-anchor="start" font-size="12" fill="var(--mut)" font-family="ui-sans-serif,system-ui,sans-serif">dette des États</text><path d="M250.7 131.61 L349.3 131.61" fill="none" stroke="var(--fg)" stroke-width="1.8" stroke-linecap="round"/><path d="M349.3 131.61 L341.3 127.61 L341.3 135.61 Z" fill="var(--fg)"/><text x="300" y="123.23" text-anchor="middle" font-size="12.5" fill="var(--fg)" font-family="ui-sans-serif,system-ui,sans-serif">argent</text><path d="M349.3 169.35 L250.7 169.35" fill="none" stroke="var(--fg)" stroke-width="1.8" stroke-linecap="round"/><path d="M250.7 169.35 L258.7 173.35 L258.7 165.35 Z" fill="var(--fg)"/><text x="300" y="188.23" text-anchor="middle" font-size="12.5" fill="var(--fg)" font-family="ui-sans-serif,system-ui,sans-serif">titres</text></svg>
