<svg xmlns="http://www.w3.org/2000/svg" viewBox="0 0 600 300" width="100%" height="auto" role="img" style="color:var(--fg);max-width:600px;height:auto"><title>Les épargnants financent ceux qui ont besoin d'argent ; les titres font le chemin inverse</title><text x="236.2" y="30.32" text-anchor="end" font-size="12.5" fill="var(--fg)" font-weight="600" font-family="ui-sans-serif,system-ui,sans-serif">épargnent</text><rect x="44.8" y="61.48" width="191.4" height="18.97" fill="var(--ajo)" rx="2"/><text x="236.2" y="56.48" text-anchor="end" font-size="12" fill="var(--mut)" font-family="ui-sans-serif,system-ui,sans-serif">gérants d'actifs  120</text><rect x="172.4" y="117.94" width="63.8" height="18.97" fill="var(--ajo)" rx="2"/><text x="236.2" y="112.94" text-anchor="end" font-size="12" fill="var(--mut)" font-family="ui-sans-serif,system-ui,sans-serif">assureurs  40</text><rect x="220.25" y="174.39" width="15.95" height="18.97" fill="var(--ajo)" rx="2"/><text x="236.2" y="169.39" text-anchor="end" font-size="12" fill="var(--mut)" font-family="ui-sans-serif,system-ui,sans-serif">fonds souverains  10</text><rect x="233.01" y="230.84" width="3.19" height="18.97" fill="var(--ajo)" rx="2"/><text x="236.2" y="225.84" text-anchor="end" font-size="12" fill="var(--mut)" font-family="ui-sans-serif,system-ui,sans-serif">fondations  2</text><text x="363.8" y="30.32" text-anchor="start" font-size="12.5" fill="var(--fg)" font-weight="600" font-family="ui-sans-serif,system-ui,sans-serif">ont besoin d'argent</text><rect x="363.8" y="61.48" width="159.5" height="18.97" fill="var(--acc)" rx="2"/><text x="363.8" y="56.48" text-anchor="start" font-size="12" fill="var(--mut)" font-family="ui-sans-serif,system-ui,sans-serif">actions  100</text><rect x="363.8" y="117.94" width="143.55" height="18.97" fill="var(--acc)" rx="2"/><text x="363.8" y="112.94" text-anchor="start" font-size="12" fill="var(--mut)" font-family="ui-sans-serif,system-ui,sans-serif">dette d'entreprise  90</text><rect x="363.8" y="174.39" width="143.55" height="18.97" fill="var(--acc)" rx="2"/><text x="363.8" y="169.39" text-anchor="start" font-size="12" fill="var(--mut)" font-family="ui-sans-serif,system-ui,sans-serif">dette souveraine  90</text><path d="M250.7 140.97 L349.3 140.97" fill="none" stroke="var(--fg)" stroke-width="1.8" stroke-linecap="round"/><path d="M349.3 140.97 L341.3 136.97 L341.3 144.97 Z" fill="var(--fg)"/><text x="300" y="131.94" text-anchor="middle" font-size="12.5" fill="var(--fg)" font-family="ui-sans-serif,system-ui,sans-serif">argent</text><path d="M349.3 181.61 L250.7 181.61" fill="none" stroke="var(--fg)" stroke-width="1.8" stroke-linecap="round"/><path d="M250.7 181.61 L258.7 185.61 L258.7 177.61 Z" fill="var(--fg)"/><text x="300" y="201.94" text-anchor="middle" font-size="12.5" fill="var(--fg)" font-family="ui-sans-serif,system-ui,sans-serif">titres</text><text x="300" y="278.71" text-anchor="middle" font-size="11.5" fill="var(--mut)" font-family="ui-sans-serif,system-ui,sans-serif">en milliers de milliards de dollars</text></svg>
