<svg xmlns="http://www.w3.org/2000/svg" viewBox="0 0 640 420" width="100%" height="auto" role="img" style="color:var(--fg);max-width:640px;height:auto"><title>Le prix d'une obligation in fine : chaque coupon et le capital, ramenés en 0 par le facteur de leur date</title><path d="M47.62 222.78 L612.19 222.78" fill="none" stroke="var(--mut)" stroke-width="1.3" stroke-linecap="round" stroke-linejoin="round"/><path d="M611.2 222.78 L612.19 222.78" fill="none" stroke="var(--mut)" stroke-width="1.3" stroke-linecap="round"/><path d="M612.19 222.78 L604.19 218.78 L604.19 226.78 Z" fill="var(--mut)"/><path d="M97.14 217.78 l0 10" stroke="var(--mut)" stroke-width="1.3"/><text x="97.14" y="243.78" text-anchor="middle" font-size="12.5" fill="var(--mut)" font-style="italic" font-family="ui-sans-serif,system-ui,sans-serif">0</text><path d="M196.19 217.78 l0 10" stroke="var(--mut)" stroke-width="1.3"/><text x="196.19" y="243.78" text-anchor="middle" font-size="12.5" fill="var(--mut)" font-style="italic" font-family="ui-sans-serif,system-ui,sans-serif">1</text><path d="M295.24 217.78 l0 10" stroke="var(--mut)" stroke-width="1.3"/><text x="295.24" y="243.78" text-anchor="middle" font-size="12.5" fill="var(--mut)" font-style="italic" font-family="ui-sans-serif,system-ui,sans-serif">2</text><path d="M532.95 217.78 l0 10" stroke="var(--mut)" stroke-width="1.3"/><text x="532.95" y="243.78" text-anchor="middle" font-size="12.5" fill="var(--mut)" font-style="italic" font-family="ui-sans-serif,system-ui,sans-serif">n</text><text x="414.1" y="243.78" text-anchor="middle" font-size="14" fill="var(--mut)" font-family="ui-sans-serif,system-ui,sans-serif">…</text><path d="M196.19 216.65 L196.19 161.42" fill="none" stroke="var(--acc)" stroke-width="2.2" stroke-linecap="round"/><path d="M196.19 161.42 L192.19 169.42 L200.19 169.42 Z" fill="var(--acc)"/><text x="203.19" y="192.1" text-anchor="start" font-size="13.5" fill="var(--acc)" font-weight="600" font-family="ui-sans-serif,system-ui,sans-serif">r*</text><path d="M295.24 216.65 L295.24 161.42" fill="none" stroke="var(--acc)" stroke-width="2.2" stroke-linecap="round"/><path d="M295.24 161.42 L291.24 169.42 L299.24 169.42 Z" fill="var(--acc)"/><text x="302.24" y="192.1" text-anchor="start" font-size="13.5" fill="var(--acc)" font-weight="600" font-family="ui-sans-serif,system-ui,sans-serif">r*</text><path d="M532.95 216.65 L532.95 161.42" fill="none" stroke="var(--acc)" stroke-width="2.2" stroke-linecap="round"/><path d="M532.95 161.42 L528.95 169.42 L536.95 169.42 Z" fill="var(--acc)"/><text x="539.95" y="192.1" text-anchor="start" font-size="13.5" fill="var(--acc)" font-weight="600" font-family="ui-sans-serif,system-ui,sans-serif">r*</text><path d="M532.95 157.33 L532.95 105.16" fill="none" stroke="var(--ajo)" stroke-width="2.2" stroke-linecap="round"/><path d="M532.95 105.16 L528.95 113.16 L536.95 113.16 Z" fill="var(--ajo)"/><text x="539.95" y="133.29" text-anchor="start" font-size="13.5" fill="var(--ajo)" font-weight="600" font-family="ui-sans-serif,system-ui,sans-serif">1 : le capital</text><path d="M196.19 151.19 Q155.01 121.45 105.07 130.73" fill="none" stroke="var(--mut)" stroke-width="1.2" stroke-linecap="round"/><path d="M105.07 130.73 L113.66 133.2 L112.2 125.34 Z" fill="var(--mut)"/><text x="150.63" y="122.96" text-anchor="middle" font-size="12" fill="var(--mut)" font-family="ui-sans-serif,system-ui,sans-serif">× 1/(1 + r)</text><path d="M295.24 151.19 Q207.42 98.58 105.07 100.05" fill="none" stroke="var(--mut)" stroke-width="1.2" stroke-linecap="round"/><path d="M105.07 100.05 L113.12 103.94 L113.01 95.94 Z" fill="var(--mut)"/><text x="200.15" y="103.62" text-anchor="middle" font-size="12" fill="var(--mut)" font-family="ui-sans-serif,system-ui,sans-serif">× 1/(1 + r)<tspan dy="-4.2" font-size="8.64">2</tspan><tspan dy="4.2"></tspan></text><path d="M532.95 94.94 Q321.3 47.68 105.07 64.25" fill="none" stroke="var(--mut)" stroke-width="1.2" stroke-linecap="round"/><path d="M105.07 64.25 L113.35 67.63 L112.74 59.65 Z" fill="var(--mut)"/><text x="319.01" y="55.59" text-anchor="middle" font-size="12" fill="var(--mut)" font-family="ui-sans-serif,system-ui,sans-serif">× 1/(1 + r)<tspan dy="-4.2" font-size="8.64">n</tspan><tspan dy="4.2"></tspan></text><path d="M87.24 228.92 L87.24 299.49" fill="none" stroke="var(--fg)" stroke-width="2.2" stroke-linecap="round"/><path d="M87.24 299.49 L91.24 291.49 L83.24 291.49 Z" fill="var(--fg)"/><text x="97.24" y="303.49" text-anchor="start" font-size="13" fill="var(--fg)" font-weight="600" font-family="ui-sans-serif,system-ui,sans-serif">− B(r*, r) : le prix, somme des retours</text><text x="320" y="350.63" text-anchor="middle" font-size="13.5" fill="var(--fg)" font-weight="600" font-family="ui-sans-serif,system-ui,sans-serif">B(r*, r) = r* [ 1/(1 + r) + 1/(1 + r)<tspan dy="-4.72" font-size="9.72">2</tspan><tspan dy="4.72"> + … + 1/(1 + r)</tspan><tspan dy="-4.72" font-size="9.72">n</tspan><tspan dy="4.72"> ] + 1/(1 + r)</tspan><tspan dy="-4.72" font-size="9.72">n</tspan><tspan dy="4.72"></tspan></text><text x="320" y="374.63" text-anchor="middle" font-size="12.5" fill="var(--mut)" font-family="ui-sans-serif,system-ui,sans-serif">somme géométrique : r* / r × (1 − 1/(1 + r)<tspan dy="-4.38" font-size="9">n</tspan><tspan dy="4.38">) + 1/(1 + r)</tspan><tspan dy="-4.38" font-size="9">n</tspan><tspan dy="4.38"></tspan></text></svg>
