<svg xmlns="http://www.w3.org/2000/svg" viewBox="0 0 560 300" width="100%" height="auto" role="img" style="color:var(--fg);max-width:560px;height:auto"><title>Le détenteur n'exerce que si cela l'arrange : il gagne 20 à 120, rien à 80</title><path d="M54 16 L54 260 M54 260 L542 260" fill="none" stroke="var(--mut)" stroke-width="1.2"/><path d="M76.7 260 l0 4" stroke="var(--mut)" stroke-width="1.2"/><text x="76.7" y="277" text-anchor="middle" font-size="11.5" fill="var(--mut)" font-family="ui-sans-serif,system-ui,sans-serif">t</text><path d="M303.67 260 l0 4" stroke="var(--mut)" stroke-width="1.2"/><text x="303.67" y="277" text-anchor="middle" font-size="11.5" fill="var(--mut)" font-family="ui-sans-serif,system-ui,sans-serif">T</text><path d="M54 219.33 l-4 0" stroke="var(--mut)" stroke-width="1.2"/><text x="46" y="223.33" text-anchor="end" font-size="11.5" fill="var(--mut)" font-family="ui-sans-serif,system-ui,sans-serif">80</text><path d="M54 138 l-4 0" stroke="var(--mut)" stroke-width="1.2"/><text x="46" y="142" text-anchor="end" font-size="11.5" fill="var(--mut)" font-family="ui-sans-serif,system-ui,sans-serif">100</text><path d="M54 56.67 l-4 0" stroke="var(--mut)" stroke-width="1.2"/><text x="46" y="60.67" text-anchor="end" font-size="11.5" fill="var(--mut)" font-family="ui-sans-serif,system-ui,sans-serif">120</text><text x="542" y="293" text-anchor="end" font-size="12" fill="var(--mut)" font-family="ui-sans-serif,system-ui,sans-serif">temps</text><text x="10" y="10" text-anchor="start" font-size="12" fill="var(--mut)" font-family="ui-sans-serif,system-ui,sans-serif">prix de l'action</text><path d="M76.7 138 L530.65 138" fill="none" stroke="var(--li2)" stroke-width="1.2" stroke-dasharray="4 3" stroke-linecap="round" stroke-linejoin="round"/><text x="530.65" y="132" text-anchor="end" font-size="12" fill="var(--mut)" font-family="ui-sans-serif,system-ui,sans-serif">strike 100</text><path d="M76.7 138 L144.79 121.73 L201.53 142.07 L258.28 93.27 L303.67 56.67" fill="none" stroke="var(--acc)" stroke-width="2.2" stroke-linecap="round" stroke-linejoin="round"/><path d="M76.7 138 L133.44 150.2 L190.19 133.93 L246.93 178.67 L303.67 219.33" fill="none" stroke="var(--ajo)" stroke-width="2.2" stroke-linecap="round" stroke-linejoin="round"/><circle cx="303.67" cy="56.67" r="3.6" fill="var(--acc)"/><circle cx="303.67" cy="219.33" r="3.6" fill="var(--ajo)"/><path d="M317.29 138 L317.29 56.67 M317.29 138 l-4 0 M317.29 56.67 l-4 0" stroke="var(--acc)" stroke-width="1.4" fill="none" stroke-linecap="round"/><defs><filter id="fond-etiquette" x="-0.03" y="-0.12" width="1.06" height="1.24"><feFlood style="flood-color:var(--card)"/></filter></defs><text x="324.29" y="101.33" text-anchor="start" font-size="12" fill="none" filter="url(#fond-etiquette)" font-family="ui-sans-serif,system-ui,sans-serif">exerce : gagne 20</text><text x="324.29" y="101.33" text-anchor="start" font-size="12" fill="var(--acc)" font-family="ui-sans-serif,system-ui,sans-serif">exerce : gagne 20</text><text x="324.29" y="117.33" text-anchor="start" font-size="11.5" fill="var(--acc)" font-family="ui-sans-serif,system-ui,sans-serif">achète à 100 ce qui vaut 120</text><text x="315.67" y="223.33" text-anchor="start" font-size="12.5" fill="var(--ajo)" font-weight="600" font-family="ui-sans-serif,system-ui,sans-serif">n'exerce pas : reçoit 0</text></svg>
