<svg xmlns="http://www.w3.org/2000/svg" viewBox="0 0 750 270" width="100%" height="auto" role="img" style="color:var(--fg);max-width:750px;height:auto"><title>Zéro-coupon + calls : jamais moins de 100, et 39,5 % de la hausse</title><g transform="translate(0 0)"><path d="M34 30 L34 234 M34 234 L222 234" fill="none" stroke="var(--mut)" stroke-width="1.2"/><path d="M34 234 l0 4" stroke="var(--mut)" stroke-width="1.2"/><text x="34" y="251" text-anchor="middle" font-size="11.5" fill="var(--mut)" font-family="ui-sans-serif,system-ui,sans-serif">60</text><path d="M117.56 234 l0 4" stroke="var(--mut)" stroke-width="1.2"/><text x="117.56" y="251" text-anchor="middle" font-size="11.5" fill="var(--mut)" font-family="ui-sans-serif,system-ui,sans-serif">100</text><path d="M201.11 234 l0 4" stroke="var(--mut)" stroke-width="1.2"/><text x="201.11" y="251" text-anchor="middle" font-size="11.5" fill="var(--mut)" font-family="ui-sans-serif,system-ui,sans-serif">140</text><path d="M34 227.82 l-4 0" stroke="var(--mut)" stroke-width="1.2"/><text x="26" y="231.82" text-anchor="end" font-size="11.5" fill="var(--mut)" font-family="ui-sans-serif,system-ui,sans-serif">0</text><path d="M34 150.55 l-4 0" stroke="var(--mut)" stroke-width="1.2"/><text x="26" y="154.55" text-anchor="end" font-size="11.5" fill="var(--mut)" font-family="ui-sans-serif,system-ui,sans-serif">50</text><path d="M34 73.27 l-4 0" stroke="var(--mut)" stroke-width="1.2"/><text x="26" y="77.27" text-anchor="end" font-size="11.5" fill="var(--mut)" font-family="ui-sans-serif,system-ui,sans-serif">100</text><text x="222" y="267" text-anchor="end" font-size="12" fill="var(--mut)" font-family="ui-sans-serif,system-ui,sans-serif">action à T</text><path d="M34 73.27 L117.56 73.27 L222 73.27" fill="none" stroke="var(--ajo)" stroke-width="2.8" stroke-linecap="round" stroke-linejoin="round"/><text x="128" y="18" text-anchor="middle" font-size="12" fill="var(--ajo)" font-weight="600" font-family="ui-sans-serif,system-ui,sans-serif">zéro-coupon : 100</text></g><text x="245" y="142" text-anchor="middle" font-size="20" fill="var(--mut)" font-family="ui-sans-serif,system-ui,sans-serif">+</text><g transform="translate(260 0)"><path d="M34 30 L34 234 M34 234 L222 234" fill="none" stroke="var(--mut)" stroke-width="1.2"/><path d="M34 234 l0 4" stroke="var(--mut)" stroke-width="1.2"/><text x="34" y="251" text-anchor="middle" font-size="11.5" fill="var(--mut)" font-family="ui-sans-serif,system-ui,sans-serif">60</text><path d="M117.56 234 l0 4" stroke="var(--mut)" stroke-width="1.2"/><text x="117.56" y="251" text-anchor="middle" font-size="11.5" fill="var(--mut)" font-family="ui-sans-serif,system-ui,sans-serif">100</text><path d="M201.11 234 l0 4" stroke="var(--mut)" stroke-width="1.2"/><text x="201.11" y="251" text-anchor="middle" font-size="11.5" fill="var(--mut)" font-family="ui-sans-serif,system-ui,sans-serif">140</text><path d="M34 227.82 l-4 0" stroke="var(--mut)" stroke-width="1.2"/><text x="26" y="231.82" text-anchor="end" font-size="11.5" fill="var(--mut)" font-family="ui-sans-serif,system-ui,sans-serif">0</text><path d="M34 150.55 l-4 0" stroke="var(--mut)" stroke-width="1.2"/><text x="26" y="154.55" text-anchor="end" font-size="11.5" fill="var(--mut)" font-family="ui-sans-serif,system-ui,sans-serif">50</text><path d="M34 73.27 l-4 0" stroke="var(--mut)" stroke-width="1.2"/><text x="26" y="77.27" text-anchor="end" font-size="11.5" fill="var(--mut)" font-family="ui-sans-serif,system-ui,sans-serif">100</text><text x="222" y="267" text-anchor="end" font-size="12" fill="var(--mut)" font-family="ui-sans-serif,system-ui,sans-serif">action à T</text><path d="M34 227.82 L117.56 227.82 L222 197.3" fill="none" stroke="var(--acc)" stroke-width="2.8" stroke-linecap="round" stroke-linejoin="round"/><text x="128" y="18" text-anchor="middle" font-size="12" fill="var(--acc)" font-weight="600" font-family="ui-sans-serif,system-ui,sans-serif">0,395 call</text></g><text x="505" y="142" text-anchor="middle" font-size="20" fill="var(--mut)" font-family="ui-sans-serif,system-ui,sans-serif">=</text><g transform="translate(520 0)"><path d="M34 30 L34 234 M34 234 L222 234" fill="none" stroke="var(--mut)" stroke-width="1.2"/><path d="M34 234 l0 4" stroke="var(--mut)" stroke-width="1.2"/><text x="34" y="251" text-anchor="middle" font-size="11.5" fill="var(--mut)" font-family="ui-sans-serif,system-ui,sans-serif">60</text><path d="M117.56 234 l0 4" stroke="var(--mut)" stroke-width="1.2"/><text x="117.56" y="251" text-anchor="middle" font-size="11.5" fill="var(--mut)" font-family="ui-sans-serif,system-ui,sans-serif">100</text><path d="M201.11 234 l0 4" stroke="var(--mut)" stroke-width="1.2"/><text x="201.11" y="251" text-anchor="middle" font-size="11.5" fill="var(--mut)" font-family="ui-sans-serif,system-ui,sans-serif">140</text><path d="M34 227.82 l-4 0" stroke="var(--mut)" stroke-width="1.2"/><text x="26" y="231.82" text-anchor="end" font-size="11.5" fill="var(--mut)" font-family="ui-sans-serif,system-ui,sans-serif">0</text><path d="M34 150.55 l-4 0" stroke="var(--mut)" stroke-width="1.2"/><text x="26" y="154.55" text-anchor="end" font-size="11.5" fill="var(--mut)" font-family="ui-sans-serif,system-ui,sans-serif">50</text><path d="M34 73.27 l-4 0" stroke="var(--mut)" stroke-width="1.2"/><text x="26" y="77.27" text-anchor="end" font-size="11.5" fill="var(--mut)" font-family="ui-sans-serif,system-ui,sans-serif">100</text><text x="222" y="267" text-anchor="end" font-size="12" fill="var(--mut)" font-family="ui-sans-serif,system-ui,sans-serif">action à T</text><path d="M34 73.27 L117.56 73.27 L222 42.75" fill="none" stroke="var(--fg)" stroke-width="2.8" stroke-linecap="round" stroke-linejoin="round"/><text x="128" y="18" text-anchor="middle" font-size="12" fill="var(--fg)" font-weight="600" font-family="ui-sans-serif,system-ui,sans-serif">capital garanti</text><text x="222" y="32.75" text-anchor="end" font-size="11.5" fill="var(--fg)" font-family="ui-sans-serif,system-ui,sans-serif">+39,5 % de la hausse</text></g></svg>
