<svg xmlns="http://www.w3.org/2000/svg" viewBox="0 0 560 320" width="100%" height="auto" role="img" style="color:var(--fg);max-width:560px;height:auto"><title>Les capitaux propres s'arrêtent à 0 : sous 80 d'actifs, la perte passe à la dette</title><path d="M54 16 L54 280 M54 176.47 L542 176.47" fill="none" stroke="var(--mut)" stroke-width="1.2"/><path d="M54 176.47 l0 4" stroke="var(--mut)" stroke-width="1.2"/><text x="54" y="193.47" text-anchor="middle" font-size="11.5" fill="var(--mut)" font-family="ui-sans-serif,system-ui,sans-serif">40</text><path d="M151.6 176.47 l0 4" stroke="var(--mut)" stroke-width="1.2"/><text x="151.6" y="193.47" text-anchor="middle" font-size="11.5" fill="var(--mut)" font-family="ui-sans-serif,system-ui,sans-serif">60</text><path d="M249.2 176.47 l0 4" stroke="var(--mut)" stroke-width="1.2"/><text x="249.2" y="193.47" text-anchor="middle" font-size="11.5" fill="var(--mut)" font-family="ui-sans-serif,system-ui,sans-serif">80</text><path d="M346.8 176.47 l0 4" stroke="var(--mut)" stroke-width="1.2"/><text x="346.8" y="193.47" text-anchor="middle" font-size="11.5" fill="var(--mut)" font-family="ui-sans-serif,system-ui,sans-serif">100</text><path d="M444.4 176.47 l0 4" stroke="var(--mut)" stroke-width="1.2"/><text x="444.4" y="193.47" text-anchor="middle" font-size="11.5" fill="var(--mut)" font-family="ui-sans-serif,system-ui,sans-serif">120</text><path d="M542 176.47 l0 4" stroke="var(--mut)" stroke-width="1.2"/><text x="542" y="193.47" text-anchor="middle" font-size="11.5" fill="var(--mut)" font-family="ui-sans-serif,system-ui,sans-serif">140</text><path d="M54 228.24 l-4 0" stroke="var(--mut)" stroke-width="1.2"/><text x="46" y="232.24" text-anchor="end" font-size="11.5" fill="var(--mut)" font-family="ui-sans-serif,system-ui,sans-serif">-20</text><path d="M54 176.47 l-4 0" stroke="var(--mut)" stroke-width="1.2"/><text x="46" y="180.47" text-anchor="end" font-size="11.5" fill="var(--mut)" font-family="ui-sans-serif,system-ui,sans-serif">0</text><path d="M54 124.71 l-4 0" stroke="var(--mut)" stroke-width="1.2"/><text x="46" y="128.71" text-anchor="end" font-size="11.5" fill="var(--mut)" font-family="ui-sans-serif,system-ui,sans-serif">20</text><path d="M54 72.94 l-4 0" stroke="var(--mut)" stroke-width="1.2"/><text x="46" y="76.94" text-anchor="end" font-size="11.5" fill="var(--mut)" font-family="ui-sans-serif,system-ui,sans-serif">40</text><path d="M54 21.18 l-4 0" stroke="var(--mut)" stroke-width="1.2"/><text x="46" y="25.18" text-anchor="end" font-size="11.5" fill="var(--mut)" font-family="ui-sans-serif,system-ui,sans-serif">60</text><text x="542" y="209.47" text-anchor="end" font-size="12" fill="var(--mut)" font-family="ui-sans-serif,system-ui,sans-serif">actifs à l'échéance</text><text x="10" y="10" text-anchor="start" font-size="12" fill="var(--mut)" font-family="ui-sans-serif,system-ui,sans-serif">capitaux propres</text><path d="M54 280 L249.2 176.47" fill="none" stroke="var(--li2)" stroke-width="1.6" stroke-dasharray="5 4" stroke-linecap="round" stroke-linejoin="round"/><path d="M54 176.47 L249.2 176.47 L542 21.18" fill="none" stroke="var(--acc)" stroke-width="2.8" stroke-linecap="round" stroke-linejoin="round"/><defs><filter id="fond-etiquette" x="-0.03" y="-0.12" width="1.06" height="1.24"><feFlood style="flood-color:var(--card)"/></filter></defs><text x="127.2" y="218.24" text-anchor="middle" font-size="12" fill="none" filter="url(#fond-etiquette)" font-family="ui-sans-serif,system-ui,sans-serif">sans la règle : A − 80</text><text x="127.2" y="218.24" text-anchor="middle" font-size="12" fill="var(--mut)" font-family="ui-sans-serif,system-ui,sans-serif">sans la règle : A − 80</text><text x="426.64" y="78.12" text-anchor="end" font-size="12.5" fill="var(--acc)" font-weight="600" font-family="ui-sans-serif,system-ui,sans-serif">E = A − 80</text><text x="151.6" y="167.47" text-anchor="middle" font-size="12.5" fill="var(--acc)" font-weight="600" font-family="ui-sans-serif,system-ui,sans-serif">plancher : E = 0</text></svg>
