<svg xmlns="http://www.w3.org/2000/svg" viewBox="0 0 560 300" width="100%" height="auto" role="img" style="color:var(--fg);max-width:560px;height:auto"><title>Sans aléa, le call paierait F − K = 4,08 dans un an : il vaudrait 3,92 aujourd'hui</title><path d="M54 16 L54 260 M54 260 L542 260" fill="none" stroke="var(--mut)" stroke-width="1.2"/><path d="M148.89 260 l0 4" stroke="var(--mut)" stroke-width="1.2"/><text x="148.89" y="277" text-anchor="middle" font-size="11.5" fill="var(--mut)" font-family="ui-sans-serif,system-ui,sans-serif">t</text><path d="M420 260 l0 4" stroke="var(--mut)" stroke-width="1.2"/><text x="420" y="277" text-anchor="middle" font-size="11.5" fill="var(--mut)" font-family="ui-sans-serif,system-ui,sans-serif">T</text><path d="M54 190.29 l-4 0" stroke="var(--mut)" stroke-width="1.2"/><text x="46" y="194.29" text-anchor="end" font-size="11.5" fill="var(--mut)" font-family="ui-sans-serif,system-ui,sans-serif">100</text><path d="M54 95.47 l-4 0" stroke="var(--mut)" stroke-width="1.2"/><text x="46" y="99.47" text-anchor="end" font-size="11.5" fill="var(--mut)" font-family="ui-sans-serif,system-ui,sans-serif">104,08</text><text x="542" y="293" text-anchor="end" font-size="12" fill="var(--mut)" font-family="ui-sans-serif,system-ui,sans-serif">temps</text><text x="10" y="10" text-anchor="start" font-size="12" fill="var(--mut)" font-family="ui-sans-serif,system-ui,sans-serif">prix de l'action</text><path d="M54 190.29 L528.44 190.29" fill="none" stroke="var(--li2)" stroke-width="1.2" stroke-dasharray="4 3" stroke-linecap="round" stroke-linejoin="round"/><text x="528.44" y="206.29" text-anchor="end" font-size="12" fill="var(--mut)" font-family="ui-sans-serif,system-ui,sans-serif">strike 100</text><path d="M148.89 190.29 L420 95.45" fill="none" stroke="var(--acc)" stroke-width="2.4" stroke-dasharray="6 4" stroke-linecap="round" stroke-linejoin="round"/><text x="284.44" y="131.81" text-anchor="middle" font-size="12" fill="var(--acc)" font-family="ui-sans-serif,system-ui,sans-serif">à coup sûr, le prix forward</text><path d="M433.56 190.29 L433.56 95.45 M433.56 190.29 l-4 0 M433.56 95.45 l-4 0" stroke="var(--ajo)" stroke-width="1.4" fill="none" stroke-linecap="round"/><defs><filter id="fond-etiquette" x="-0.03" y="-0.12" width="1.06" height="1.24"><feFlood style="flood-color:var(--card)"/></filter></defs><text x="440.56" y="146.87" text-anchor="start" font-size="12" fill="none" filter="url(#fond-etiquette)" font-family="ui-sans-serif,system-ui,sans-serif">payoff 4,08</text><text x="440.56" y="146.87" text-anchor="start" font-size="12" fill="var(--ajo)" font-family="ui-sans-serif,system-ui,sans-serif">payoff 4,08</text><path d="M420 46.21 Q291.22 22.21 162.44 46.21" fill="none" stroke="var(--ajo)" stroke-width="1.5" stroke-linecap="round"/><path d="M162.44 46.21 L171.04 48.68 L169.58 40.81 Z" fill="var(--ajo)"/><text x="144.89" y="32.21" text-anchor="start" font-size="12.5" fill="var(--ajo)" font-weight="600" font-family="ui-sans-serif,system-ui,sans-serif">IV = 4,08 × 0,9608 = 3,92</text></svg>
